<mxfile host="app.diagrams.net" modified="2024-02-16T18:27:42.385Z" agent="Mozilla/5.0 (Windows NT 10.0; Win64; x64) AppleWebKit/537.36 (KHTML, like Gecko) Chrome/120.0.0.0 YaBrowser/24.1.0.0 Safari/537.36" etag="JsRcUTpwEi-96UCu5vfu" version="23.1.5" type="device">
  <diagram id="C5RBs43oDa-KdzZeNtuy" name="Page-1">
    <mxGraphModel dx="1002" dy="551" grid="1" gridSize="10" guides="1" tooltips="1" connect="1" arrows="1" fold="1" page="1" pageScale="1" pageWidth="827" pageHeight="1169" math="0" shadow="0">
      <root>
        <mxCell id="WIyWlLk6GJQsqaUBKTNV-0" />
        <mxCell id="WIyWlLk6GJQsqaUBKTNV-1" parent="WIyWlLk6GJQsqaUBKTNV-0" />
        <mxCell id="-YLPaWiGfDbkhbNqOUda-35" style="edgeStyle=orthogonalEdgeStyle;rounded=0;orthogonalLoop=1;jettySize=auto;html=1;exitX=0.5;exitY=1;exitDx=0;exitDy=0;entryX=0.5;entryY=0;entryDx=0;entryDy=0;endArrow=classicThin;endFill=1;" parent="WIyWlLk6GJQsqaUBKTNV-1" source="WIyWlLk6GJQsqaUBKTNV-3" target="-YLPaWiGfDbkhbNqOUda-45" edge="1">
          <mxGeometry relative="1" as="geometry">
            <mxPoint x="490" y="275" as="targetPoint" />
          </mxGeometry>
        </mxCell>
        <mxCell id="WIyWlLk6GJQsqaUBKTNV-3" value="&lt;font face=&quot;Lucida Console&quot;&gt;текст (x) вносится в матрицу (X)&lt;/font&gt;" style="rounded=1;whiteSpace=wrap;html=1;fontSize=12;glass=0;strokeWidth=1;shadow=0;arcSize=5;" parent="WIyWlLk6GJQsqaUBKTNV-1" vertex="1">
          <mxGeometry x="400" y="210" width="180" height="30" as="geometry" />
        </mxCell>
        <mxCell id="-YLPaWiGfDbkhbNqOUda-3" style="edgeStyle=orthogonalEdgeStyle;rounded=0;orthogonalLoop=1;jettySize=auto;html=1;exitX=0.5;exitY=1;exitDx=0;exitDy=0;entryX=0.5;entryY=0;entryDx=0;entryDy=0;endArrow=classicThin;endFill=1;" parent="WIyWlLk6GJQsqaUBKTNV-1" source="-YLPaWiGfDbkhbNqOUda-1" target="-YLPaWiGfDbkhbNqOUda-2" edge="1">
          <mxGeometry relative="1" as="geometry" />
        </mxCell>
        <mxCell id="-YLPaWiGfDbkhbNqOUda-1" value="&lt;font face=&quot;Lucida Console&quot;&gt;Начало&lt;/font&gt;" style="rounded=1;whiteSpace=wrap;html=1;fontSize=12;glass=0;strokeWidth=1;shadow=0;arcSize=50;" parent="WIyWlLk6GJQsqaUBKTNV-1" vertex="1">
          <mxGeometry x="450" y="60" width="80" height="30" as="geometry" />
        </mxCell>
        <mxCell id="-YLPaWiGfDbkhbNqOUda-2" value="&lt;font face=&quot;Lucida Console&quot;&gt;текст (x) &lt;br&gt;матрица-ключ (K)&lt;br&gt;обратная матрица (K&lt;sup&gt;-1&lt;/sup&gt;)&lt;br&gt;&lt;/font&gt;" style="shape=parallelogram;perimeter=parallelogramPerimeter;whiteSpace=wrap;html=1;fixedSize=1;size=10;" parent="WIyWlLk6GJQsqaUBKTNV-1" vertex="1">
          <mxGeometry x="395" y="120" width="190" height="55" as="geometry" />
        </mxCell>
        <mxCell id="-YLPaWiGfDbkhbNqOUda-27" value="&lt;font face=&quot;Lucida Console&quot;&gt;Конец&lt;/font&gt;" style="rounded=1;whiteSpace=wrap;html=1;fontSize=12;glass=0;strokeWidth=1;shadow=0;arcSize=50;" parent="WIyWlLk6GJQsqaUBKTNV-1" vertex="1">
          <mxGeometry x="450" y="405" width="80" height="30" as="geometry" />
        </mxCell>
        <mxCell id="-YLPaWiGfDbkhbNqOUda-29" style="edgeStyle=orthogonalEdgeStyle;rounded=0;orthogonalLoop=1;jettySize=auto;html=1;exitX=0.5;exitY=1;exitDx=0;exitDy=0;entryX=0.5;entryY=0;entryDx=0;entryDy=0;endArrow=classicThin;endFill=1;" parent="WIyWlLk6GJQsqaUBKTNV-1" source="-YLPaWiGfDbkhbNqOUda-2" target="WIyWlLk6GJQsqaUBKTNV-3" edge="1">
          <mxGeometry relative="1" as="geometry">
            <mxPoint x="505" y="165" as="sourcePoint" />
            <mxPoint x="505" y="185" as="targetPoint" />
          </mxGeometry>
        </mxCell>
        <mxCell id="3h6hTAy-Vyu-1r_KlwYv-1" style="edgeStyle=orthogonalEdgeStyle;rounded=0;orthogonalLoop=1;jettySize=auto;html=1;exitX=0.5;exitY=1;exitDx=0;exitDy=0;entryX=0.5;entryY=0;entryDx=0;entryDy=0;endArrow=classicThin;endFill=1;" parent="WIyWlLk6GJQsqaUBKTNV-1" source="-YLPaWiGfDbkhbNqOUda-45" target="3h6hTAy-Vyu-1r_KlwYv-0" edge="1">
          <mxGeometry relative="1" as="geometry" />
        </mxCell>
        <mxCell id="-YLPaWiGfDbkhbNqOUda-45" value="Рассчитываем Y = XK" style="rounded=1;whiteSpace=wrap;html=1;fontSize=12;glass=0;strokeWidth=1;shadow=0;arcSize=5;" parent="WIyWlLk6GJQsqaUBKTNV-1" vertex="1">
          <mxGeometry x="445" y="275" width="90" height="30" as="geometry" />
        </mxCell>
        <mxCell id="3h6hTAy-Vyu-1r_KlwYv-2" style="edgeStyle=orthogonalEdgeStyle;rounded=0;orthogonalLoop=1;jettySize=auto;html=1;exitX=0.5;exitY=1;exitDx=0;exitDy=0;entryX=0.5;entryY=0;entryDx=0;entryDy=0;endArrow=classicThin;endFill=1;" parent="WIyWlLk6GJQsqaUBKTNV-1" source="3h6hTAy-Vyu-1r_KlwYv-0" target="-YLPaWiGfDbkhbNqOUda-27" edge="1">
          <mxGeometry relative="1" as="geometry" />
        </mxCell>
        <mxCell id="3h6hTAy-Vyu-1r_KlwYv-0" value="&lt;font face=&quot;Lucida Console&quot;&gt;Считываем матрицу рассчитанную построчно&amp;nbsp;&lt;/font&gt;" style="rounded=1;whiteSpace=wrap;html=1;fontSize=12;glass=0;strokeWidth=1;shadow=0;arcSize=5;" parent="WIyWlLk6GJQsqaUBKTNV-1" vertex="1">
          <mxGeometry x="430" y="325" width="120" height="60" as="geometry" />
        </mxCell>
      </root>
    </mxGraphModel>
  </diagram>
</mxfile>
